<svg width="14" height="12" viewBox="0 0 14 12" fill="none" xmlns="http://www.w3.org/2000/svg">
<path d="M13.4657 10.156C13.4575 10.1328 13.448 10.1101 13.4371 10.088L9.381 1.8924C9.17265 1.41077 8.73872 1.06403 8.22298 0.96705C7.70724 0.870071 7.17701 1.03551 6.80793 1.40855L5.8113 3.30605L3.41956 8.34383C3.02465 9.10498 2.40192 9.60897 1.66007 9.78541L5.32232 2.4114C5.32966 2.3964 5.33645 2.38118 5.34269 2.36573C5.40255 2.23117 5.53611 2.14453 5.6834 2.14473C5.69724 2.14496 5.71105 2.14599 5.72478 2.1478L6.32713 1.07639C5.94123 0.904319 5.50248 0.894005 5.10894 1.04775C4.71535 1.2015 4.3998 1.5065 4.23273 1.89459L0.172386 10.0714C0.166145 10.0831 0.160347 10.095 0.154869 10.1074C0.0646283 10.3071 0.0782697 10.5384 0.191307 10.7262C0.304374 10.914 0.502434 11.0342 0.721199 11.0479C0.831688 11.0571 0.943489 11.0617 1.05399 11.0617C2.50761 11.0617 3.79421 10.2494 4.49523 8.88846C4.49819 8.88266 4.50117 8.87685 4.5039 8.87083L6.78602 4.06336L6.78667 4.06182L6.80694 4.01933L7.475 2.61587L7.47399 2.61379L7.57453 2.40198C7.57877 2.39308 7.58274 2.38413 7.58646 2.37515C7.64429 2.23566 7.78045 2.14472 7.93145 2.14472C8.08245 2.14472 8.21861 2.23566 8.27644 2.37515C8.28136 2.38731 8.28738 2.39936 8.29275 2.41118L11.9421 9.78508C11.2055 9.6081 10.5858 9.10443 10.1915 8.34405L7.78973 3.27889L7.12661 4.69341L9.1069 8.86995C9.10975 8.87587 9.11271 8.88189 9.11565 8.8878C9.82754 10.269 11.0778 11.0611 12.5469 11.0611C12.6629 11.0611 12.7803 11.0559 12.8959 11.0458C12.969 11.0396 13.0404 11.0199 13.1065 10.9878C13.4277 10.8493 13.5854 10.4848 13.4657 10.156Z" fill="black"/>
</svg>
